<svg id="man" xmlns="http://www.w3.org/2000/svg" xmlns:xlink="http://www.w3.org/1999/xlink" viewBox="0 0 150 150"><defs><style>.cls-1,.cls-6{fill:none;}.cls-2{opacity:0.41;}.cls-3{fill:#58415e;}.cls-4,.cls-5{fill:#fff;}.cls-4{stroke:#939598;}.cls-4,.cls-5,.cls-6{stroke-miterlimit:10;stroke-width:0.5px;}.cls-5{stroke:#48463a;}.cls-6{stroke:#96998d;}.cls-7{fill:#96998d;}.cls-8{clip-path:url(#clip-path);}.cls-9{fill:#0c7779;}.cls-10{fill:#f8f8f2;}.cls-11{fill:#c55548;}.cls-12{fill:#009444;}</style><clipPath id="clip-path"><rect class="cls-1" x="21.86" y="21.69" width="53.28" height="48.31" transform="translate(2.61 94.3) rotate(-89.94)"/></clipPath></defs><title>icon</title><path class="cls-3" d="M42.6,120.43c-0.09-1.37-.58-11.56,7.42-18.94A31.24,31.24,0,0,1,56.7,96.9a24.26,24.26,0,0,1,8-2.2,23.19,23.19,0,0,1,7.56.58A17.26,17.26,0,0,1,80.23,99,21.68,21.68,0,0,1,83.91,104c2.61,4.13,2.38,5.13,4.36,7.42a17,17,0,0,0,5,4,15.22,15.22,0,0,0,9.2,1.69,17.33,17.33,0,0,0,7.12-3.12,22.31,22.31,0,0,0,4.35-3.58,13.4,13.4,0,0,0,3.34-5.09,11.38,11.38,0,0,0,.34-5.81,11.65,11.65,0,0,0-5-7c-4.75-3.14-10-1.61-10.92-1.3a11.86,11.86,0,0,0-8.58,10.75,13.15,13.15,0,0,0,1.12,6,14,14,0,0,0,3.5,4.75c2.89,2.55,6,3.2,8.63,3.7a33.41,33.41,0,0,0,10.24.09,58,58,0,0,0,13.52-3.24h0a80.9,80.9,0,0,0,13.23-8.29l-1-1.8a49,49,0,0,1-17.13,9.49c-2.84.89-11.5,3.53-19.63,1.48a14.71,14.71,0,0,1-3.46-1.31c-1.41-.76-5-2.7-6.34-6.82a10.5,10.5,0,0,1,2-10c3.44-3.87,9.36-4.21,13.31-1.85a9.45,9.45,0,0,1,4.48,6c0.88,4.68-2.91,8.43-4.73,10.23-1.31,1.3-4.58,4.53-9.69,4.74a13.59,13.59,0,0,1-7.8-2.19,15.17,15.17,0,0,1-3.92-3.73c-1.35-1.76-1.28-2.35-3.42-6.06a23.89,23.89,0,0,0-2.94-4.48,16.35,16.35,0,0,0-5-3.52,22.87,22.87,0,0,0-5.72-1.89A24.73,24.73,0,0,0,64,92.5a23.85,23.85,0,0,0-7.92,2.42,26.41,26.41,0,0,0-7.28,4.65,25,25,0,0,0-6.26,9.08,28.26,28.26,0,0,0-1.84,9.89c0,0.23.11,3.29,0.11,3.29h0Z"/><rect class="cls-4" x="22.61" y="64.66" width="50.08" height="44.98"/><path class="cls-5" d="M74.83,113.12c0,23.6-54.37,23.6-54.37,0S32.64,70.39,47.65,70.39,74.83,89.52,74.83,113.12Z"/><path class="cls-6" d="M69.46,109c0,15.55-43.61,15.55-43.61,0s9.76-28.16,21.81-28.16S69.46,93.47,69.46,109Z"/><path class="cls-7" d="M70.94,48.32C65.9,63.47,60.51,69.9,47.65,69.9s-18.7-7-22.66-21.63C35.78,43.29,62.93,45.84,70.94,48.32Z"/><g class="cls-8"><path class="cls-5" d="M70.94,48.32a23.62,23.62,0,1,0-46,0Z"/><path class="cls-5" d="M47.95,66.44A23.62,23.62,0,0,1,25,48.27s3.73,24.2,23,24.22,23-24.17,23-24.17a23.62,23.62,0,0,1-23,18.13"/><path class="cls-9" d="M64.53,65.89a3.66,3.66,0,1,1-3.65-3.66,3.66,3.66,0,0,1,3.65,3.66"/><path class="cls-9" d="M70.93,23.73h0a0.67,0.67,0,0,1,.67.67l0,23.59a0.67,0.67,0,1,1-1.34,0l0-23.59a0.67,0.67,0,0,1,.67-0.67"/><path class="cls-9" d="M69.18,21.32a1.75,1.75,0,1,1,1.75,1.75,1.75,1.75,0,0,1-1.75-1.75"/><path class="cls-7" d="M52.59,22.62c4.53,1.1,14.12,7,15.41,20.23a1.27,1.27,0,0,1-.69,1.25l-1.36.7a1.27,1.27,0,0,1-1.85-1c-0.38-3.45-2.44-11.12-12.75-19a1.28,1.28,0,0,1-.51-1,1.32,1.32,0,0,1,1.75-1.18"/><path class="cls-7" d="M28.23,35.1C27,36.18,25.1,39.73,27,44.77a0.87,0.87,0,0,0,.69.58,0.68,0.68,0,0,0,.65-1A12.69,12.69,0,0,1,29,35.73a0.57,0.57,0,0,0,0-.45,0.47,0.47,0,0,0-.76-0.18"/><path class="cls-10" d="M31.29,31.08h0a0.76,0.76,0,0,0-1,.28l-0.67,1.15a0.76,0.76,0,0,0,1.31.76l0.66-1.15a0.76,0.76,0,0,0-.28-1"/></g><circle class="cls-11" cx="26.97" cy="69.53" r="1.98"/><circle class="cls-12" cx="31.79" cy="69.53" r="1.98"/></svg>